<svg width="200" height="60" viewBox="0 0 200 60" fill="none" xmlns="http://www.w3.org/2000/svg">
<g clip-path="url(#clip0)">
<path d="M47.21 22.5L57 16.45C58.5804 19.5809 59.596 22.9662 60 26.45L47.21 34.35V22.5ZM17.65 22.5C18.8791 23.2228 20.2791 23.6039 21.705 23.6039C23.1308 23.6039 24.5308 23.2228 25.76 22.5L26.15 22.27C27.3791 21.5473 28.7791 21.1662 30.205 21.1662C31.6308 21.1662 33.0308 21.5473 34.26 22.27L34.65 22.5C35.8791 23.2228 37.2791 23.6039 38.705 23.6039C40.1308 23.6039 41.5308 23.2228 42.76 22.5L47.21 19.89L56 14.52C53.337 10.0685 49.5653 6.38354 45.053 3.82484C40.5408 1.26614 35.4422 -0.0788574 30.255 -0.0788574C25.0677 -0.0788574 19.9691 1.26614 15.4569 3.82484C10.9446 6.38354 7.17293 10.0685 4.50996 14.52L13.26 19.92L17.65 22.5ZM47.21 36.92L34.41 44.82C33.1463 45.6007 31.6903 46.0143 30.205 46.0143C28.7196 46.0143 27.2636 45.6007 26 44.82L15.51 38.34L13.21 36.92L0.209961 28.92C0.209961 29.26 0.209961 29.6 0.209961 29.92C0.209961 37.8765 3.37067 45.5071 8.99676 51.1332C14.6228 56.7593 22.2535 59.92 30.21 59.92C38.1665 59.92 45.7971 56.7593 51.4232 51.1332C57.0493 45.5071 60.21 37.8765 60.21 29.92C60.21 29.58 60.21 29.24 60.21 28.92L47.21 36.92ZM13.21 22.5L3.39996 16.45C1.8191 19.5808 0.803504 22.9661 0.399961 26.45L13.19 34.35L13.21 22.5Z" fill="black"/>
<path d="M91.4401 35.67L91.5121 26.652H91.4581L88.1461 35.67H85.9861L82.7641 26.652H82.7101L82.7821 35.67H79.8841V22.926H84.2581L87.1561 31.098H87.2281L90.0001 22.926H94.4461V35.67H91.4401ZM105.715 35.67L104.725 33.168H99.7935L98.8575 35.67H95.5095L100.855 22.926H103.843L109.135 35.67H105.715ZM102.295 26.328L100.675 30.702H103.879L102.295 26.328ZM116.921 26.238C116.657 25.902 116.309 25.638 115.877 25.446C115.457 25.242 115.049 25.14 114.653 25.14C114.449 25.14 114.239 25.158 114.023 25.194C113.819 25.23 113.633 25.302 113.465 25.41C113.297 25.506 113.153 25.638 113.033 25.806C112.925 25.962 112.871 26.166 112.871 26.418C112.871 26.634 112.913 26.814 112.997 26.958C113.093 27.102 113.225 27.228 113.393 27.336C113.573 27.444 113.783 27.546 114.023 27.642C114.263 27.726 114.533 27.816 114.833 27.912C115.265 28.056 115.715 28.218 116.183 28.398C116.651 28.566 117.077 28.794 117.461 29.082C117.845 29.37 118.163 29.73 118.415 30.162C118.667 30.582 118.793 31.11 118.793 31.746C118.793 32.478 118.655 33.114 118.379 33.654C118.115 34.182 117.755 34.62 117.299 34.968C116.843 35.316 116.321 35.574 115.733 35.742C115.145 35.91 114.539 35.994 113.915 35.994C113.003 35.994 112.121 35.838 111.269 35.526C110.417 35.202 109.709 34.746 109.145 34.158L111.161 32.106C111.473 32.49 111.881 32.814 112.385 33.078C112.901 33.33 113.411 33.456 113.915 33.456C114.143 33.456 114.365 33.432 114.581 33.384C114.797 33.336 114.983 33.258 115.139 33.15C115.307 33.042 115.439 32.898 115.535 32.718C115.631 32.538 115.679 32.322 115.679 32.07C115.679 31.83 115.619 31.626 115.499 31.458C115.379 31.29 115.205 31.14 114.977 31.008C114.761 30.864 114.485 30.738 114.149 30.63C113.825 30.51 113.453 30.384 113.033 30.252C112.625 30.12 112.223 29.964 111.827 29.784C111.443 29.604 111.095 29.376 110.783 29.1C110.483 28.812 110.237 28.47 110.045 28.074C109.865 27.666 109.775 27.174 109.775 26.598C109.775 25.89 109.919 25.284 110.207 24.78C110.495 24.276 110.873 23.862 111.341 23.538C111.809 23.214 112.337 22.98 112.925 22.836C113.513 22.68 114.107 22.602 114.707 22.602C115.427 22.602 116.159 22.734 116.903 22.998C117.659 23.262 118.319 23.652 118.883 24.168L116.921 26.238ZM128.618 35.67L123.884 29.802H123.848V35.67H120.824V22.926H123.848V28.11H123.902L128.456 22.926H132.308L126.818 28.794L132.632 35.67H128.618ZM140.352 26.238C140.088 25.902 139.74 25.638 139.308 25.446C138.888 25.242 138.48 25.14 138.084 25.14C137.88 25.14 137.67 25.158 137.454 25.194C137.25 25.23 137.064 25.302 136.896 25.41C136.728 25.506 136.584 25.638 136.464 25.806C136.356 25.962 136.302 26.166 136.302 26.418C136.302 26.634 136.344 26.814 136.428 26.958C136.524 27.102 136.656 27.228 136.824 27.336C137.004 27.444 137.214 27.546 137.454 27.642C137.694 27.726 137.964 27.816 138.264 27.912C138.696 28.056 139.146 28.218 139.614 28.398C140.082 28.566 140.508 28.794 140.892 29.082C141.276 29.37 141.594 29.73 141.846 30.162C142.098 30.582 142.224 31.11 142.224 31.746C142.224 32.478 142.086 33.114 141.81 33.654C141.546 34.182 141.186 34.62 140.73 34.968C140.274 35.316 139.752 35.574 139.164 35.742C138.576 35.91 137.97 35.994 137.346 35.994C136.434 35.994 135.552 35.838 134.7 35.526C133.848 35.202 133.14 34.746 132.576 34.158L134.592 32.106C134.904 32.49 135.312 32.814 135.816 33.078C136.332 33.33 136.842 33.456 137.346 33.456C137.574 33.456 137.796 33.432 138.012 33.384C138.228 33.336 138.414 33.258 138.57 33.15C138.738 33.042 138.87 32.898 138.966 32.718C139.062 32.538 139.11 32.322 139.11 32.07C139.11 31.83 139.05 31.626 138.93 31.458C138.81 31.29 138.636 31.14 138.408 31.008C138.192 30.864 137.916 30.738 137.58 30.63C137.256 30.51 136.884 30.384 136.464 30.252C136.056 30.12 135.654 29.964 135.258 29.784C134.874 29.604 134.526 29.376 134.214 29.1C133.914 28.812 133.668 28.47 133.476 28.074C133.296 27.666 133.206 27.174 133.206 26.598C133.206 25.89 133.35 25.284 133.638 24.78C133.926 24.276 134.304 23.862 134.772 23.538C135.24 23.214 135.768 22.98 136.356 22.836C136.944 22.68 137.538 22.602 138.138 22.602C138.858 22.602 139.59 22.734 140.334 22.998C141.09 23.262 141.75 23.652 142.314 24.168L140.352 26.238ZM152.211 33.186V35.67H149.385V33.186H143.391V30.648L148.575 22.926H152.193V30.738H153.957V33.186H152.211ZM149.403 26.022H149.349L146.325 30.738H149.403V26.022ZM164.532 35.67L163.542 33.168H158.61L157.674 35.67H154.326L159.672 22.926H162.66L167.952 35.67H164.532ZM161.112 26.328L159.492 30.702H162.696L161.112 26.328ZM169.005 35.67V22.926H172.101V32.988H177.033V35.67H169.005ZM178.48 35.67V22.926H181.576V32.988H186.508V35.67H178.48Z" fill="black"/>
</g>
<defs>
<clipPath id="clip0">
<rect width="200" height="60" fill="white"/>
</clipPath>
</defs>
</svg>
